<?xml version="1.0" encoding="iso-8859-1"?>
<!-- Generator: Adobe Illustrator 19.0.0, SVG Export Plug-In . SVG Version: 6.00 Build 0)  -->
<svg version="1.1" id="Layer_1" xmlns="http://www.w3.org/2000/svg" xmlns:xlink="http://www.w3.org/1999/xlink" x="0px" y="0px"
	 viewBox="0 0 512 512" style="enable-background:new 0 0 512 512;" xml:space="preserve">
<polygon style="fill:#6DA8D6;" points="70.066,196.131 256,10.199 441.932,196.131 "/>
<path style="fill:#082947;" d="M441.932,206.331H70.067c-4.125,0-7.844-2.486-9.423-6.296c-1.579-3.81-0.706-8.198,2.21-11.115
	L248.788,2.987c3.983-3.983,10.441-3.983,14.425,0L449.144,188.92c2.917,2.917,3.789,7.305,2.21,11.115
	C449.777,203.846,446.058,206.331,441.932,206.331z M94.69,185.932h322.619L256,24.623L94.69,185.932z"/>
<polygon style="fill:#6DA8D6;" points="441.932,315.867 256,501.801 70.066,315.867 "/>
<g>
	<path style="fill:#082947;" d="M256,512c-2.61,0-5.221-0.996-7.212-2.987L62.855,323.08c-2.917-2.917-3.789-7.305-2.21-11.115
		c1.579-3.811,5.297-6.296,9.423-6.296h371.866c4.125,0,7.844,2.486,9.423,6.296c1.579,3.81,0.706,8.198-2.21,11.115
		L263.212,509.012C261.221,511.003,258.61,512,256,512z M94.69,326.066L256,487.377l161.31-161.31H94.69V326.066z"/>
	<path style="fill:#082947;" d="M486.502,266.199H25.498c-5.633,0-10.199-4.566-10.199-10.199s4.566-10.199,10.199-10.199h461.004
		c5.633,0,10.199,4.566,10.199,10.199C496.701,261.633,492.135,266.199,486.502,266.199z"/>
	<path style="fill:#082947;" d="M257.02,466.103c-2.61,0-5.221-0.995-7.212-2.987l-64.255-64.255
		c-3.983-3.983-3.983-10.441,0-14.425c3.983-3.983,10.441-3.983,14.425,0l64.255,64.255c3.983,3.983,3.983,10.441,0,14.425
		C262.241,465.108,259.63,466.103,257.02,466.103z"/>
	<path style="fill:#082947;" d="M170.837,379.92c-2.61,0-5.221-0.995-7.212-2.987l-3.57-3.57c-3.983-3.983-3.983-10.441,0-14.425
		c3.983-3.983,10.441-3.983,14.425,0l3.57,3.57c3.983,3.983,3.983,10.441,0,14.425C176.058,378.925,173.447,379.92,170.837,379.92z"
		/>
</g>
<g>
</g>
<g>
</g>
<g>
</g>
<g>
</g>
<g>
</g>
<g>
</g>
<g>
</g>
<g>
</g>
<g>
</g>
<g>
</g>
<g>
</g>
<g>
</g>
<g>
</g>
<g>
</g>
<g>
</g>
</svg>
